HIERARCHY
ROOT Hips
{
  OFFSET 0 0 0
  CHANNELS 6 Xposition Yposition Zposition Zrotation Yrotation Xrotation
  JOINT LeftThigh
  {
    OFFSET 8.409438 0 -5.917753
    CHANNELS 3 Zrotation Yrotation Xrotation
    JOINT LeftLeg
    {
      OFFSET 0 0 -42.358652
      CHANNELS 3 Zrotation Yrotation Xrotation
      JOINT LeftFoot
      {
        OFFSET 0 0 -39.357303
        CHANNELS 3 Zrotation Yrotation Xrotation
      }
    }
  }
  JOINT RightThigh
  {
    OFFSET -8.409438 0 -5.917753
    CHANNELS 3 Zrotation Yrotation Xrotation
    JOINT RightLeg
    {
      OFFSET 0 0 -42.358652
      CHANNELS 3 Zrotation Yrotation Xrotation
      JOINT RightFoot
      {
        OFFSET 0 0 -39.357303
        CHANNELS 3 Zrotation Yrotation Xrotation
      }
    }
  }
  JOINT SpineLow
  {
    OFFSET 0 0 4.719101
    CHANNELS 3 Zrotation Yrotation Xrotation
    JOINT SpineMid
    {
      OFFSET 0 0 12.899191
      CHANNELS 3 Zrotation Yrotation Xrotation
      JOINT Chest
      {
        OFFSET 0 0 12.899191
        CHANNELS 3 Zrotation Yrotation Xrotation
        JOINT LeftShoulder
        {
          OFFSET 7.550562 1.41573 9.438202
          CHANNELS 3 Zrotation Yrotation Xrotation
          JOINT LeftArm
          {
            OFFSET 9.155056 0 4.247191
            CHANNELS 3 Zrotation Yrotation Xrotation
            JOINT LeftForearm
            {
              OFFSET 0 0 25.771955
              CHANNELS 3 Zrotation Yrotation Xrotation
              JOINT LeftHand
              {
                OFFSET 0 0 25.197169
                CHANNELS 3 Zrotation Yrotation Xrotation
              }
            }
          }
        }
        JOINT RightShoulder
        {
          OFFSET -7.550562 1.41573 9.438202
          CHANNELS 3 Zrotation Yrotation Xrotation
          JOINT RightArm
          {
            OFFSET -9.155056 0 4.247191
            CHANNELS 3 Zrotation Yrotation Xrotation
            JOINT RightForearm
            {
              OFFSET 0 0 -25.771955
              CHANNELS 3 Zrotation Yrotation Xrotation
              JOINT RightHand
              {
                OFFSET 0 0 -25.197169
                CHANNELS 3 Zrotation Yrotation Xrotation
              }
            }
          }
        }
        JOINT Neck
        {
          OFFSET 0 0 15.101124
          CHANNELS 3 Zrotation Yrotation Xrotation
          JOINT Head
          {
            OFFSET 0 0 11.325843
            CHANNELS 3 Zrotation Yrotation Xrotation
            End Site
            {
              OFFSET 0 0 14.157303
            }
          }
        }
      }
    }
  }
}
MOTION
Frames: 10
Frame Time: 0.0
0.0  101.685394  0.0  -0.911955  23.592958  -94.309833  16.43592  -24.960104  10.00307  3.281303  4.590428  35.028925  1.648153  4.794999  1.345765  -6.107798  1.398318  -40.798297  6.764324  7.782053  55.594333  2.154195  4.200459  1.970983  -1.150009  0.633001  2.798739  -3.066137  1.860107  7.619819  -3.066137  1.860107  7.619819  -3.628021  20.699975  7.677131  149.052002  32.279271  -168.392716  -36.068402  -27.500685  102.47672  69.638137  -15.421198  24.540903  11.973698  -8.524796  11.48773  -70.880073  60.189191  -85.13989  6.567337  -25.120651  -112.719288  59.240565  -2.145414  16.436069  -6.45619  -4.428573  -6.89119  -4.890484  -3.24959  -5.213364  
0.0  101.685394  0.0  -1.098072  23.015967  -94.261052  17.251225  -25.208446  9.750896  3.046143  4.653263  34.773018  1.965783  4.80598  1.81604  -5.460514  1.241896  -40.881643  6.610886  7.913956  55.218404  2.349186  4.049698  2.026461  -1.147224  0.701585  2.773163  -3.051579  2.045769  7.547122  -3.051579  2.045769  7.547123  -3.361496  20.441245  7.784841  149.790163  33.453296  -167.34061  -35.780304  -28.196022  102.537204  69.700081  -16.049871  23.018505  12.310724  -8.843479  11.71666  -68.885451  60.203706  -83.879381  6.791  -24.584782  -112.515192  59.216023  -2.265358  16.516268  -6.196925  -4.642615  -6.73687  -4.697094  -3.414601  -5.097664  
0.0  101.685394  0.0  -1.180909  22.51169  -94.179909  17.730851  -25.230842  9.71156  2.991519  4.630123  34.47941  2.229356  4.784361  2.175882  -4.722185  1.253666  -40.96555  6.471026  7.755821  54.916824  2.159181  3.904792  2.065878  -1.073971  0.734165  2.774119  -2.847894  2.126383  7.550834  -2.847894  2.126383  7.550834  -3.763024  20.391879  7.704651  150.605565  34.704671  -166.167967  -35.526613  -28.801048  102.700259  69.726978  -16.661115  21.319598  11.915963  -8.960546  11.785351  -66.697907  60.345756  -82.566098  7.051554  -24.016426  -112.36914  59.140459  -2.293424  16.801605  -6.24413  -4.751133  -6.765586  -4.733794  -3.49521  -5.120544  
0.0  101.685394  0.0  -1.314832  21.682699  -94.157837  18.10734  -25.137449  9.755201  3.10149  4.570261  34.19974  2.647082  4.742886  2.533764  -3.764094  1.26124  -41.047032  6.393457  7.293909  54.71996  1.900465  3.527504  2.059703  -0.986757  0.777951  2.774279  -2.604847  2.235952  7.552655  -2.604847  2.235952  7.552656  -4.224477  20.204873  7.584628  151.838501  35.969769  -164.732873  -35.306319  -29.261345  102.937849  69.621227  -17.21405  19.473788  11.695877  -9.175506  11.846315  -54.371212  66.282249  -80.22561  -2.284377  -20.271781  -103.484535  58.936607  -2.268524  17.255215  -6.192395  -4.908783  -6.809356  -4.696948  -3.613611  -5.154352  
0.0  101.685394  0.0  -1.469156  21.024708  -93.973056  18.132268  -24.87858  9.66964  3.427584  4.450055  33.950896  3.20977  4.660091  2.926925  -2.838309  1.160425  -41.245469  6.186389  7.084796  54.451383  1.777947  3.238317  2.093505  -0.920554  0.798314  2.762581  -2.422217  2.283567  7.522331  -2.422217  2.283567  7.522332  -4.648438  20.135342  7.432023  153.007096  37.354656  -163.132279  -35.148327  -29.601277  103.271425  69.349117  -17.628574  17.545062  11.266218  -9.242823  11.816608  -51.174868  66.541347  -78.066451  -1.993352  -19.711656  -103.477263  58.603141  -2.287433  17.787624  -6.15463  -5.047136  -6.928494  -4.671037  -3.716642  -5.24457  
0.0  101.685394  0.0  -1.761531  20.249875  -93.769215  17.424965  -24.276215  9.260836  4.459122  4.074668  34.173199  3.800083  4.500516  3.21613  -1.901231  0.837266  -41.476942  6.083072  6.924898  54.145429  1.821327  3.116021  2.15229  -0.883789  0.806956  2.745745  -2.321468  2.30241  7.477344  -2.321468  2.30241  7.477344  -5.125835  19.992863  7.132819  154.602986  38.675805  -161.270519  -35.071004  -29.918227  103.699526  68.916271  -17.835847  15.536333  11.179751  -9.348375  11.710381  -47.647265  66.787233  -75.553387  -1.603522  -19.078777  -103.48113  58.201738  -2.344242  18.460605  -6.07865  -5.194539  -7.100285  -4.617088  -3.826399  -5.373972  
0.0  101.685394  0.0  -2.094012  19.574001  -93.487195  17.094939  -23.975038  9.038064  5.18156  3.823537  33.934463  4.380036  4.367009  3.615139  -1.09419  0.301416  -41.767631  6.205627  6.908743  53.846361  1.822374  2.974202  2.203005  -0.847335  0.794737  2.720946  -2.224171  2.264146  7.411192  -2.224171  2.264146  7.411192  -5.620017  19.953359  6.798113  156.186854  40.078853  -159.26093  -34.993191  -30.314438  104.140545  68.43175  -17.923651  13.343911  10.728096  -9.308016  11.555206  -43.26649  66.967817  -72.415644  -1.090329  -18.367408  -103.525582  57.731733  -2.429102  19.263038  -5.955809  -5.342852  -7.280578  -4.528183  -3.937353  -5.50928  
0.0  101.685394  0.0  -2.545547  18.694376  -93.341948  16.782248  -23.723125  8.961475  6.160038  3.389453  33.632295  4.729862  4.197473  3.926815  -0.196468  -0.47123  -41.934841  6.515166  6.965192  53.580945  1.93886  2.836383  2.230158  -0.946085  0.817676  2.668334  -2.493194  2.335845  7.263119  -2.493194  2.335845  7.263118  -5.310127  19.749456  6.52807  158.295328  41.399142  -157.03052  -34.859065  -30.86731  104.536103  68.02678  -17.968002  10.842666  11.152731  -9.467398  11.512217  -38.207835  67.181432  -68.75076  -0.446258  -17.586358  -103.659645  57.106735  -2.517714  20.247268  -5.371582  -5.559189  -7.33264  -4.093099  -4.106079  -5.544651  
0.0  101.685394  0.0  -2.887506  18.126225  -93.148745  16.063315  -23.326392  9.036754  7.301527  2.893564  33.187922  5.033788  4.015636  4.267206  0.338437  -1.227142  -42.044073  6.996762  7.03634  53.315041  2.032807  2.687653  2.220289  -0.970827  0.811029  2.653279  -2.56202  2.319845  7.221282  -2.56202  2.319845  7.221282  -5.892339  19.684628  5.959813  160.383067  42.779486  -154.734594  -34.69815  -31.587342  104.873449  67.731719  -18.021163  7.984405  10.854813  -9.399201  11.311857  -32.792581  67.186122  -64.59827  0.27183  -16.77141  -103.860233  56.275161  -2.489781  21.464524  -5.116047  -5.752763  -7.537808  -3.905671  -4.252655  -5.697358  
0.0  101.685394  0.0  -3.392671  15.909804  -93.626871  16.780153  -23.353037  9.813391  8.512002  2.311887  32.609708  5.231569  3.877463  4.550505  2.372657  -2.243783  -41.494247  7.582736  7.005357  53.049195  2.050939  2.540857  2.17399  -0.784164  0.80179  2.707346  -2.051384  2.275929  7.376037  -2.051384  2.275929  7.376037  -6.538216  19.600971  5.407693  162.912977  44.08836  -152.198192  -34.56133  -32.408279  105.177425  67.573539  -18.074233  4.795705  10.804049  -9.258875  11.188582  -26.894996  67.092671  -59.975631  1.044032  -15.928618  -104.112776  55.190554  -2.313047  22.991216  -4.914655  -5.8848  -7.744178  -3.758259  -4.352552  -5.850922  
